<svg width="72" height="72" viewBox="0 0 72 72" fill="none" xmlns="http://www.w3.org/2000/svg">
<path d="M22.5 25.0201H44.7C47.37 25.0201 49.5 27.18 49.5 29.82V35.1301M22.5 25.0201L27.57 19.9799M22.5 25.0201L27.57 30.0901M49.5 46.9799H27.3C24.63 46.9799 22.5 44.82 22.5 42.18V36.8699M49.5 46.9799L44.43 52.0201M49.5 46.9799L44.43 41.9099M66 36C66 52.5685 52.5685 66 36 66C19.4315 66 6 52.5685 6 36C6 19.4315 19.4315 6 36 6C52.5685 6 66 19.4315 66 36Z" stroke="#F5F5F5" stroke-opacity="0.4" stroke-width="1.25" stroke-miterlimit="10" stroke-linecap="round" stroke-linejoin="round"/>
</svg>
